<?xml version="1.0" standalone="no"?>
<!DOCTYPE svg PUBLIC "-//W3C//DTD SVG 20010904//EN"
 "http://www.w3.org/TR/2001/REC-SVG-20010904/DTD/svg10.dtd">
<svg version="1.0" xmlns="http://www.w3.org/2000/svg"
 width="134.000000pt" height="134.000000pt" viewBox="0 0 134.000000 134.000000"
 preserveAspectRatio="xMidYMid meet">
<metadata>
Created by potrace 1.11, written by Peter Selinger 2001-2013
</metadata>
<g transform="translate(0.000000,134.000000) scale(0.100000,-0.100000)"
fill="#000000" stroke="none">
<path d="M551 1320 c-25 -5 -73 -19 -108 -31 -56 -18 -62 -23 -53 -40 13 -23
4 -23 73 1 184 65 388 38 552 -71 422 -282 350 -926 -124 -1103 -176 -66 -329
-58 -501 26 -152 74 -275 222 -326 393 -13 41 -18 93 -18 165 0 112 10 160 51
253 24 54 25 59 10 74 -15 16 -19 12 -46 -48 -87 -193 -79 -410 22 -604 48
-91 183 -222 277 -269 111 -54 166 -66 315 -66 118 0 138 3 214 30 158 55 293
171 370 319 56 108 75 185 75 311 0 126 -19 203 -75 311 -110 211 -325 347
-564 355 -55 2 -120 -1 -144 -6z"/>
<path d="M325 1203 l-39 -26 -68 17 c-56 15 -72 15 -84 5 -13 -11 -8 -17 39
-43 l55 -31 -37 -43 c-33 -40 -38 -42 -64 -33 -34 13 -35 -1 -3 -23 14 -8 27
-25 31 -36 10 -31 28 -24 20 8 -5 24 0 32 41 60 25 18 47 32 48 30 1 -2 14
-30 28 -63 14 -33 29 -59 34 -59 24 3 27 35 10 104 l-18 72 33 34 c45 46 28
64 -26 27z"/>
<path d="M249 1033 c-13 -16 -12 -17 4 -4 16 13 21 21 13 21 -2 0 -10 -8 -17
-17z"/>
<path d="M642 1024 c-26 -18 -29 -60 -5 -86 11 -12 12 -18 4 -18 -7 0 -29 18
-48 40 -42 46 -52 48 -79 18 -44 -49 -135 -107 -189 -119 -58 -13 -64 -19 -39
-39 23 -20 96 -31 231 -34 67 -2 126 -7 132 -11 6 -3 11 -36 11 -72 l0 -66
-39 7 c-21 3 -65 16 -98 28 -56 22 -57 23 -28 29 17 4 51 7 77 8 26 0 50 6 54
12 13 22 -17 32 -98 30 -84 -2 -123 -15 -135 -47 -13 -34 67 -84 159 -99 l38
-6 -21 -29 c-33 -44 -28 -79 18 -120 l40 -35 -34 -31 c-47 -45 -46 -90 4 -140
40 -40 53 -33 29 15 -20 38 -20 56 0 86 25 39 34 30 34 -35 0 -53 2 -60 20
-60 18 0 20 7 20 63 l1 62 24 -28 c30 -34 31 -46 4 -99 l-21 -41 31 22 c39 28
63 74 55 105 -3 13 -19 36 -35 52 l-29 27 41 44 c45 49 47 77 8 119 -19 20
-19 20 57 39 118 29 151 67 100 114 -19 18 -38 23 -94 26 -84 5 -114 -2 -110
-24 2 -12 21 -18 76 -25 65 -7 71 -10 55 -21 -18 -13 -128 -45 -153 -45 -13 0
-11 128 2 136 4 3 65 7 135 9 70 2 144 8 163 13 74 19 107 52 53 52 -43 0
-122 42 -186 99 -32 28 -62 51 -67 51 -4 0 -23 -18 -40 -40 -17 -22 -39 -40
-47 -40 -14 0 -14 2 0 18 21 23 22 51 1 80 -18 26 -50 28 -82 6z m18 -509 l0
-55 -25 16 c-30 19 -33 60 -7 80 28 22 32 17 32 -41z m72 38 c24 -21 23 -60
-1 -73 -28 -14 -27 -15 -30 40 -2 54 2 59 31 33z"/>
<path d="M1226 663 c-6 -14 -5 -15 5 -6 7 7 10 15 7 18 -3 3 -9 -2 -12 -12z"/>
</g>
</svg>
